<?xml version="1.0" encoding="utf-8"?>
<!-- Generator: Adobe Illustrator 28.1.0, SVG Export Plug-In . SVG Version: 6.00 Build 0)  -->
<svg version="1.1" id="Layer_1" xmlns="http://www.w3.org/2000/svg" xmlns:xlink="http://www.w3.org/1999/xlink" x="0px" y="0px"
	 viewBox="0 0 313 125" style="enable-background:new 0 0 313 125;" xml:space="preserve">
<style type="text/css">
	.st0{fill:#FFFFFF;}
</style>
<g>
	<path class="st0" d="M285.9,103c-0.2-0.3-0.5-0.2-0.8-0.2c-61.1,0-122.2,0-183.3,0c-0.2,0-0.5-0.1-0.7,0.1
		c-0.3,0.2-0.3,0.5-0.2,0.8c0.1,0.3,0.4,0.2,0.7,0.2c0.2,0,0.5,0,0.7,0c60.9,0,121.7,0,182.6,0c0.2,0,0.4,0,0.6,0
		C286.1,103.9,286.3,103.6,285.9,103z"/>
	<path class="st0" d="M78.8,30.3c-0.4,0.1-0.8,0.1-1.1,0.1C78,30.1,78.4,30.3,78.8,30.3z"/>
	<path class="st0" d="M26,43.5c0.1,0.3,0.1,0.7,0.1,1C25.9,44.2,26.1,43.8,26,43.5z"/>
	<path class="st0" d="M26.1,41c0,0.3,0,0.5-0.1,0.7C26,41.5,25.9,41.2,26.1,41z"/>
	<path class="st0" d="M76.7,30.4c-0.2,0.1-0.5,0.1-0.7,0.1C76.2,30.3,76.4,30.4,76.7,30.4z"/>
	<path class="st0" d="M99.6,42.4c0-0.2,0-0.4,0-0.5c-0.1-0.4-0.2-0.8-0.3-1.1c-0.8-2.8-2.6-4.9-5-6.6c-3.2-2.2-6.8-3.2-10.6-3.7
		c-0.2,0-0.5,0-0.7,0c-0.1,0-0.2,0-0.3-0.1c-1.3,0-2.6,0-3.9,0c-0.4,0.2-0.8,0-1.1,0.1c-0.3,0-0.6,0-1,0.1c-0.2,0.1-0.5,0-0.7,0.1
		c-0.9,0.1-1.9,0.3-2.8,0.4c-3.2,0.5-6.3,1.5-9.2,2.9c-3.5,1.7-6.6,4-9.2,6.9c-4.8,5.4-7.8,11.6-8.6,18.8c-0.5,4.2,0,8.3,2,12.1
		c3.6,7,11.6,8.5,16.3,7c4.5-1.5,7.6-4.7,9.8-8.7c1-1.9,1.6-4,2-6.2c0.2-0.2,0.1-0.5,0.1-0.7c0-0.3,0-0.6,0-0.8
		c0.2-0.7,0.2-1.4,0-2.1c0-0.4,0-0.7,0-1.1c0-0.1,0-0.1-0.1-0.2c0,0.1,0,0.1,0.1,0.2c0-0.3,0.1-0.5-0.1-0.7
		c-0.1-0.8-0.3-1.6-0.4-2.4c1.1,0.2,2.1,0.4,3.1,0.5c0.3,0,0.7,0,1,0.1c0,0,0,0,0,0c0.9,0,1.8,0,2.7,0c0.1,0,0.2-0.1,0.2-0.1
		c0.3,0,0.5,0,0.8,0c1.2-0.1,2.3-0.3,3.5-0.6c3-0.7,5.7-2,8.1-3.9c2.3-1.9,3.8-4.2,4.4-7.2c0-0.2,0-0.5,0.1-0.7c0,0,0,0,0,0
		c0-0.5,0-0.9,0-1.4C99.6,42.5,99.6,42.4,99.6,42.4z"/>
	<path class="st0" d="M75.1,23.7c0-0.7,0-1.4,0-2.1c0-0.1-0.1-0.2-0.1-0.3c0-0.4,0-0.7,0-1.1c-0.1-0.3-0.1-0.6-0.2-1
		c-0.3-3-1.1-5.8-2.6-8.4c-2-3.6-4.8-6.2-9.1-6.8c-0.7,0-1.3,0-2,0c-0.8,0.1-1.7,0.3-2.4,0.6c-3.3,1.2-5.5,3.6-7.1,6.6
		c-1.5,2.7-2.4,5.5-2.6,8.5c0,0.3,0,0.5-0.1,0.7c0,0,0,0,0,0c0,1.3,0,2.6,0,3.9C49,24.5,49,24.8,49,25c0.1,0.8,0.2,1.6,0.3,2.4
		c0.1,0.1,0.2,0.3,0.1,0.4c-0.2,0.1-0.4,0-0.5-0.1c0,0,0,0,0,0c-0.8-0.1-1.6-0.2-2.4-0.3c-0.3,0-0.6,0-0.9-0.1c0,0,0,0,0,0
		c-1,0-1.9,0-2.9,0c-0.2,0.1-0.5,0.1-0.7,0.1c-2.4,0.3-4.6,0.9-6.7,2c-1.8,0.9-3.4,2.2-4.9,3.6c-2.2,2.2-3.7,4.8-4.2,7.9
		c-0.1,0.2,0,0.5-0.1,0.7c0,0.6,0,1.2,0,1.8c0.2,0.3,0,0.7,0.1,1c0.5,3.9,2.2,7.3,5.4,9.7c3.5,2.6,7.5,3.4,11.7,3.4
		c0.4,0,0.5-0.2,0.5-0.5c0.1-0.6,0.2-1.3,0.3-1.9c1.6-7.6,5.3-14,11.1-19c3.3-2.8,7.1-4.8,11.3-6.1c2.2-0.7,4.5-1.2,6.8-1.4
		c1.4-0.1,1.4-0.1,1.6-1.5c0-0.2,0-0.5,0.1-0.7c0,0,0,0,0,0c0-0.3,0-0.6,0-1c0-0.4,0-0.9,0-1.3C75,24,75,23.9,75.1,23.7z"/>
	<g>
		<path class="st0" d="M167.7,58.6c-2.5-3.4-5-6.9-7.5-10.3c-0.3-0.4-0.4-0.7,0-1.1c0.8-1.1,1.6-2.2,2.3-3.3
			c3.4-4.8,6.8-9.6,10.2-14.3c0.2-0.3,0.3-0.6,0.3-1c-3,0-6,0-9,0c-3.1,4.5-6.2,8.9-9.3,13.5c-3.1-4.5-6.2-9-9.4-13.4
			c-2.9,0-5.8,0-8.6,0c-0.7,0-0.3,0.5-0.4,0.7c1.5,2.2,3.1,4.3,4.6,6.5c2.6,3.7,5.3,7.4,7.9,11.1c0.7,1,0.7,1,0,1.9
			c-2.2,3-4.5,6.1-6.7,9.1c-1.8,2.5-3.7,5-5.5,7.6c-0.4,0.6-1,1-0.9,1.9c3.1,0,6.2,0,9.3,0c1.8-2.5,3.5-5,5.3-7.4
			c1.3-1.9,2.6-3.8,3.9-5.7c0.2-0.3,0.4-0.6,0.8,0c2.1,3,4.1,5.9,6.2,8.9c1,1.5,2.1,2.9,3.2,4.3c2.8,0,5.6,0,8.5,0
			c0.3,0,0.6,0,0.8-0.1c0-0.4-0.1-0.7-0.3-1C171.4,63.8,169.5,61.2,167.7,58.6z"/>
		<path class="st0" d="M137,53.9c0,0.2,0,0.4-0.1,0.6C136.9,54.3,136.9,54.1,137,53.9c0-0.4,0-0.8,0-1.2c-0.1-0.2-0.1-0.4-0.1-0.6
			c0,0.2,0,0.4,0.1,0.6c0-0.3,0.1-0.7-0.1-1c-0.1-0.7-0.2-1.4-0.4-2.1c-1.1-4-3.5-6.8-7.1-8.7c-0.4-0.2-0.6-0.3-0.1-0.6
			c0.9-0.5,1.7-1.2,2.4-1.9c2-2.1,3-4.6,3.4-7.5c0.2-0.3,0.1-0.6,0.1-0.9c0,0.1,0,0.2-0.1,0.3c0-0.1,0-0.2,0.1-0.3
			c0-0.4,0-0.9,0-1.3c0-0.1-0.1-0.2-0.1-0.3c0,0.1,0,0.2,0.1,0.3c0-0.3,0.1-0.7-0.1-1c-0.1-0.2-0.1-0.5-0.2-0.8
			c-0.6-3.5-2.4-6.2-5.2-8.3c-2.7-2-5.9-2.8-9.2-3.2c-0.2,0-0.4,0-0.5,0c-0.3,0-0.7,0-1-0.1c-0.2,0-0.3,0-0.5,0
			c-0.2,0-0.3,0.1-0.5,0.1c-0.4,0-0.8,0-1.2,0c-1.6,0.2-3.2,0.4-4.7,0.9c-3.1,1-5.7,2.7-7.6,5.5c-1.3,2-2.1,4.2-2.2,6.5
			c0,0.3-0.1,0.6,0,1c0,0.1,0,0.2,0.1,0.3c2.6,0,5.2,0,7.8,0c0.3,0,0.6,0,0.6-0.5c0.2-2.4,1.5-4.1,3.7-4.9c3.1-1.2,6.1-1.1,9.1,0.5
			c2.4,1.3,3.7,4.3,3,7c-0.9,3.4-4.1,5.3-7.2,5.3c-1.7,0.2-3.4,0-5,0.1c0,0-0.1,0-0.1,0c0,0,0,0,0,0c0,0,0,0,0,0
			c-0.2,0-0.5,0-0.7,0.1c0,0,0,0,0,0c0,2.3,0,4.6,0,6.9c0,0.7,0.2,0.8,0.9,0.8c1.9,0,3.8-0.1,5.8,0c0.2,0,0.5,0,0.7,0.1
			c0.3-0.1,0.4,0.1,0.7,0.1c2.3,0.3,4.2,1.2,5.6,3.1c1.7,2.2,1.8,5.5,0.3,7.8c-1.6,2.5-4,3.5-6.9,3.7c-0.3,0.1-0.7,0.1-1,0.1
			c-0.3,0-0.7,0-1,0c-0.3,0-0.7,0-1-0.1c0,0,0,0,0,0c-1.6,0-3.2-0.5-4.5-1.4c-1.7-1.2-2.8-2.8-2.9-4.9c0-0.1,0-0.2-0.1-0.3
			c-0.1-0.3-0.3-0.4-0.6-0.5c-0.1,0-0.2,0-0.3,0c-0.7,0-1.4,0-2,0c-1.6,0-3.2,0-4.9,0c0,0-0.1,0-0.1,0c0,0-0.1,0-0.1,0
			c0,0,0,0-0.1,0c-0.2,0-0.4,0-0.6,0.1c0,0,0,0,0,0c0,0.2,0,0.4,0,0.7c0.1,0.3,0.1,0.6,0.1,0.9c0,0.3,0,0.6,0.1,0.9
			c0.5,2.3,1.3,4.5,2.7,6.5c1.5,2.1,3.5,3.6,5.7,4.7c1.9,0.9,4,1.5,6.1,1.7c0.2,0,0.5,0,0.7,0.1c0,0,0,0,0,0c0.3,0,0.6,0,1,0
			c0.9,0,1.8,0,2.7,0c0.4,0,0.7,0,1.1,0c0.2-0.1,0.5-0.1,0.7-0.1c1.9-0.3,3.9-0.7,5.6-1.5c2.5-1.1,4.7-2.6,6.4-4.8
			c1.5-2,2.3-4.2,2.7-6.7C137.1,54.6,137,54.2,137,53.9z"/>
		<path class="st0" d="M285.6,28.4C285.6,28.4,285.6,28.4,285.6,28.4c-0.7,0-1.3-0.2-1.9-0.3c-0.2,0-0.5,0-0.7-0.1c0,0,0,0,0,0
			c-0.3,0-0.6,0-0.8,0c-0.7,0-1.4,0-2.1,0c-4.1,0.3-7.4,2-10,5.4c0-0.9,0-1.5,0-2.2c0-0.2-0.1-0.4-0.1-0.6c0-0.6,0-1.2,0-1.8
			c0,0,0-0.1,0-0.1c-2.5,0-5,0-7.5,0c-0.5,0-0.5,0.2-0.5,0.6c0,2.2,0,4.5,0,6.7c0,10.3,0,20.5,0,30.8c0,0.6,0.1,0.8,0.8,0.8
			c2.2,0,4.5,0,6.7,0c0.5,0,0.6-0.1,0.7-0.5c0-0.1,0-0.2,0-0.3c0-1.7,0-3.5,0-5.2c0-4.6,0-9.2,0-13.9c0-0.3-0.1-0.5,0.1-0.8
			c0,0,0,0,0,0c-0.1-1.7,0.2-3.2,0.8-4.7c1.5-3.8,5.1-6.1,9-6.4c0.2-0.1,0.5-0.1,0.7-0.1c0.7-0.1,1.3-0.1,2,0c0.2,0,0.5,0,0.7,0.1
			c0.7,0.1,1.4,0.2,2.1,0.3c0.3,0,0.3-0.1,0.3-0.4c0-2.2,0-4.5,0-6.7C285.8,28.7,285.7,28.5,285.6,28.4z"/>
		<path class="st0" d="M216.7,45.6c0-0.2,0.1-0.5-0.1-0.7c-0.1-0.5-0.2-1.1-0.3-1.6c-1-5.1-3.5-9.2-7.8-12.2c-2.9-2-6.3-3-9.8-3.3
			c-0.9,0-1.8,0-2.7,0c-0.3,0-0.6,0-0.8,0c-0.2,0.1-0.5,0.1-0.7,0.1c-4,0.6-7.5,2-10.5,4.8c0,0.1-0.1,0.2-0.1,0.2
			c-0.2-0.1-0.1-0.3-0.1-0.5c0-0.7,0-1.5,0-2.2c0,0,0,0,0,0c0,0-0.1-0.1-0.1-0.1c0,0,0-0.1,0-0.1c-0.1-0.3,0-0.6,0-0.9
			c0-0.1,0-0.1,0-0.2c0-0.1-0.1-0.2-0.2-0.3c-0.1-0.1-0.3-0.2-0.4-0.2c0,0,0,0-0.1,0c-0.1,0-0.2,0-0.4,0c-0.3,0-0.5,0.1-0.8,0.1
			c-1.8,0-3.6,0-5.4,0c-0.4,0-0.6,0.1-0.6,0.4c0,0.1,0,0.2,0,0.3c0,0.8,0,1.6,0,2.4c0,2.3,0,4.6,0,6.9c0,13.2,0,26.3,0,39.5
			c0,0,0,0.1,0,0.1c0,0,0,0.1,0,0.1c0,0,0,0.1,0,0.1c0,0.2,0,0.4,0.1,0.6c0,0,0,0,0,0c2.7,0,5.3,0,8,0c0-0.3,0.1-0.6,0.1-0.8
			c0-4.7,0-9.5,0-14.2c0-0.2-0.1-0.4,0-0.6c0.1-0.2,0.2,0,0.3,0.1c0.9,0.9,1.9,1.6,3.1,2.3c2.7,1.5,5.6,2.3,8.8,2.4
			c0.8,0,1.6,0,2.4,0c0.3,0,0.7,0,1,0c0,0,0,0,0,0c0.2-0.1,0.5-0.1,0.7-0.1c2.4-0.4,4.7-1,6.8-2.2c3.3-1.8,5.7-4.4,7.4-7.7
			c1.1-2.2,1.8-4.6,2.1-7c0,0,0,0,0,0c0.2-0.2,0.1-0.5,0.1-0.7c0-0.3,0-0.6,0-1c0.2-0.9,0.2-1.8,0-2.7
			C216.7,46.3,216.7,46,216.7,45.6z M195.7,60.4c-6.8-0.1-11.9-5.4-11.9-12.5c0-7.3,5.2-12.5,12.4-12.5c7.2,0,12.3,5.2,12.3,12.6
			C208.4,55.6,203,60.6,195.7,60.4z"/>
		<path class="st0" d="M258.2,49.4c0,0.2,0,0.3-0.1,0.5C258.2,49.7,258.2,49.5,258.2,49.4c0-0.7,0-1.4,0-2c0-0.1-0.1-0.2-0.1-0.3
			c0,0.1,0,0.2,0.1,0.3c0-0.4,0.1-0.8-0.1-1.1c-0.2-1-0.3-1.9-0.5-2.9c-1-5-3.5-9.1-7.8-12.1c-2.7-1.8-5.7-2.8-8.8-3.3
			c-0.2,0-0.5,0-0.7-0.1c0,0,0,0,0,0c-0.3,0-0.7,0-1,0c-0.9,0-1.9,0-2.8,0c-0.3,0-0.6,0-0.8,0c-0.2,0.1-0.5,0.1-0.7,0.1
			c-0.3,0.1-0.5,0.1-0.8,0.2c-4.5,0.7-8.3,2.6-11.4,6c-1.8,2-3.1,4.2-3.9,6.7c-0.6,1.7-1,3.4-1,5.1c-0.2,0.5-0.1,1-0.1,1.4
			c0-0.1,0.1-0.3,0.1-0.4c0,0.1,0,0.3-0.1,0.4c0,0.3,0,0.6,0,0.9c0,0.1,0.1,0.3,0.1,0.4c0-0.1,0-0.3-0.1-0.4c0,0.5-0.1,1,0.1,1.4v0
			c0.1,1.8,0.5,3.5,1,5.1c1.1,3.1,2.7,5.8,5.2,8c1.3,1.1,2.6,2.1,4.1,2.9c2.6,1.3,5.5,2.1,8.4,2.2c0.8,0.2,1.7,0.2,2.5,0
			c0.9-0.1,1.7-0.2,2.6-0.3c4.3-0.6,8-2.5,11-5.5c1.9-1.9,3.2-4.2,4.2-6.7c-0.1-0.3-0.4-0.2-0.6-0.2c-2.5,0-5.1,0-7.6,0
			c-0.2,0-0.4-0.1-0.6,0.1c-0.7,0.9-1.3,1.8-2.3,2.5c-1.9,1.4-3.9,2.2-6.2,2.4c-0.2,0-0.5-0.1-0.7,0.1c0,0,0,0,0,0c0,0,0,0,0,0
			c-0.7,0.1-1.4,0.1-2.1,0c-0.2-0.2-0.5-0.1-0.7-0.1c0,0,0,0,0,0c0,0,0,0,0,0c-0.5,0.1-0.9-0.1-1.4-0.2c-4.8-1.2-7.5-4.4-8.6-9.1
			c-0.1-0.3,0-0.5,0.4-0.5c0.4,0,0.8,0,1.1,0c10.1,0,20.2,0,30.3,0C258.4,50.3,258.2,49.8,258.2,49.4z M249,44.3
			c-3.6,0-7.2,0-10.9,0c-3.7,0-7.4,0-11.1,0c-0.6,0-0.6-0.2-0.5-0.7c1.5-5.1,5.5-8.2,10.9-8.4c5.7-0.2,10.3,2.9,12,8.2
			C249.8,44.3,249.8,44.3,249,44.3z"/>
	</g>
	<g>
		<path class="st0" d="M183.6,91.7c4,0,8,0,12,0c0.5,0,0.9-0.1,1.1-0.6c0.2-0.5-0.2-0.8-0.5-1.1c-0.2-0.2-0.5-0.1-0.7-0.1
			c-4.2,0-8.3,0-12.5,0c-0.2-0.8,0.1-1.5,0.6-2.1c0.7-0.9,1.7-1.3,2.8-1.3c3.1,0,6.2,0,9.3,0c0.3,0,0.7,0,0.9-0.3
			c0.1-0.3,0.3-0.5,0.1-0.8c-0.2-0.5-0.6-0.5-1-0.5c-3.1,0-6.3,0-9.4,0c-2.3,0-4.6,1.4-5,4.2c-0.2,1.2-0.2,2.3,0,3.5
			c0.3,2.4,2.3,4.2,4.4,4.2c3.4,0,6.8,0,10.2,0c0.3,0,0.6-0.1,0.7-0.4c0.4-0.7-0.1-1.3-1-1.3c-3.2,0-6.4,0-9.6,0
			c-1.4,0-2.9-1.3-3.1-2.6C182.9,91.9,183,91.7,183.6,91.7z"/>
		<path class="st0" d="M284.6,95.1c-0.2,0-0.3,0-0.5,0c-3.1,0-6.3,0-9.4,0c-1.4,0-2.9-1.3-3.1-2.6c-0.1-0.5,0-0.8,0.7-0.8
			c4,0,8,0,12,0c0.5,0,0.9-0.1,1.1-0.6c0.2-0.5,0-0.8-0.4-1.1c-0.2-0.3-0.5-0.2-0.8-0.2c-4.2,0-8.4,0-12.6,0c0-0.1-0.1-0.1-0.1-0.2
			c0-1.6,1.2-3.1,3.3-3.2c1.6,0,3.2,0,4.8,0c1.6,0,3.2,0,4.8,0c0.5,0,0.8-0.2,0.9-0.8c0.1-0.6-0.3-0.8-0.8-0.9c-0.2,0-0.3,0-0.5,0
			c-3,0-6,0-8.9,0c-2.7,0-5,1.6-5.3,4.5c-0.2,1-0.2,2,0,2.9c0.2,2.4,2.3,4.7,5.2,4.5c1.4-0.1,2.9,0,4.3,0c1.7,0,3.4,0,5.1,0
			c0.6,0,0.9-0.3,0.9-0.8C285.5,95.4,285.1,95.1,284.6,95.1z"/>
		<path class="st0" d="M139.9,85.8c0-0.5-0.2-0.9-0.8-1c-0.6-0.1-0.9,0.1-1,0.7c-0.1,0.1-0.1,0.3-0.1,0.5c0,2.9,0,5.8,0,8.7v0
			c0,0,0,0,0,0c-0.6,0.6-1,0.7-1.4,0.2c-1.7-2-3.3-3.9-5-5.9c-1.1-1.2-2.1-2.5-3.2-3.7c-0.8-0.8-1.8-0.8-2.7-0.4
			c-0.8,0.3-1.4,0.9-1.4,1.8c0,3.1,0,6.2,0,9.3c0,0.3,0.1,0.7,0.4,0.8c0.3,0.1,0.7,0.2,1-0.2c0.1-0.1,0.2-0.2,0.3-0.3
			c0.1-0.1,0.1-0.3,0.1-0.5c0-3,0-5.9,0-8.9v0c0,0,0,0,0,0c0.3-0.4,0.9-0.6,1.2-0.2c0.8,0.8,1.6,1.7,2.3,2.6c1,1.2,2,2.4,3,3.6
			c0.9,1,1.8,2,2.6,3.1c0.7,0.9,1.5,1.2,2.5,1c1-0.2,1.7-0.8,2-1.8c0.3-1,0.1-2,0.1-2.9C140,90,140,87.9,139.9,85.8z"/>
		<path class="st0" d="M214.5,85.5c-0.1-0.5-0.5-0.7-1-0.7c-0.5,0-0.7,0.3-0.7,0.8c0,0.5,0,1,0,1.5c0,2.3,0,4.7,0,7
			c0,0.5-0.2,0.9-0.7,1.1c-0.4,0.2-0.6-0.1-0.8-0.3c-0.9-1-1.7-2-2.5-3c-1.8-2.2-3.7-4.4-5.5-6.5c-0.7-0.7-1.6-0.8-2.5-0.6
			c-0.9,0.2-1.5,0.7-1.7,1.6c-0.2,0.4-0.1,0.9-0.1,1.3c0-0.3,0-0.5,0.1-0.8c0,0.3,0,0.5-0.1,0.8c0,0.7,0,1.3,0,2c0,2.1,0,4.1,0,6.2
			c0,0.4,0,0.8,0.5,0.9c0.4,0.1,0.7,0.1,1-0.3c0.1-0.1,0.1-0.2,0.2-0.3c0.1-0.1,0.1-0.3,0.1-0.5c0-3,0-5.9,0-8.9l0,0c0,0,0,0,0,0
			c0.3-0.5,0.9-0.6,1.3-0.1c1.3,1.5,2.6,2.9,3.9,4.4c1.2,1.4,2.3,2.9,3.6,4.2c0.3,0.4,0.5,0.8,1,1.1c0.9,0.5,1.8,0.6,2.8,0.1
			c0.9-0.5,1.3-1.4,1.3-2.4c0-2.7,0-5.4,0-8.2C214.5,85.8,214.6,85.7,214.5,85.5z"/>
		<path class="st0" d="M178.8,85.4c-1,1.3-2,2.6-2.9,3.9c-1.3,1.7-2.6,3.5-4,5.2c-0.1-0.1-0.3-0.3-0.4-0.4c-2.2-2.9-4.4-5.8-6.6-8.7
			c-0.4-0.6-1-0.7-1.5-0.4c-0.3,0.2-0.3,1,0.1,1.4c2.3,3,4.5,6,6.8,9c0.4,0.5,0.6,1.2,1.3,1.4c0.2,0.2,0.5,0.2,0.7,0
			c1-1.1,1.8-2.3,2.8-3.5c1.9-2.4,3.7-4.8,5.6-7.2c0.2-0.3,0.2-0.6,0-0.8C179.9,84.6,179.4,84.7,178.8,85.4z"/>
		<path class="st0" d="M230.4,84.8c-4.7,0-9.4,0-14.2,0c-0.4,0-0.7,0.1-0.9,0.4c-0.2,0.3-0.2,0.6,0,0.8c0,0,0,0,0,0
			c0.2,0.3,0.5,0.4,0.9,0.4c2,0,4,0,6,0c0,3,0,6,0,8.9c0,0.2-0.1,0.5,0.1,0.7c0.1,0.6,0.6,0.6,1.1,0.5c0.5-0.1,0.6-0.6,0.6-1
			c0-2.8,0-5.6,0-8.4c0-0.6,0.1-0.8,0.7-0.8c1.9,0.1,3.8,0,5.6,0c0.3,0,0.6,0,0.8-0.3c0.2-0.3,0.3-0.6,0.1-0.9
			C231.1,84.9,230.8,84.8,230.4,84.8z"/>
		<path class="st0" d="M103.2,85.9c0-0.6-0.2-1-0.8-1c-0.5-0.1-0.9,0.1-0.9,0.7c-0.1,0.2-0.1,0.3-0.1,0.5c0,3.2,0,6.3,0,9.5
			c0,0.2,0,0.4,0.1,0.5c0.1,0.6,0.4,0.8,1,0.7c0.6-0.1,0.7-0.5,0.7-0.9c0-0.3,0-0.7,0-1C103.1,91.9,103.1,88.9,103.2,85.9z"/>
		<path class="st0" d="M121.4,85.2c-0.7-0.6-1-0.6-1.6,0c-0.2,0.1-0.1,0.3-0.1,0.5c0,2.9,0,5.9,0,8.8c0-0.1,0-0.1,0.1-0.2
			c0,0.1,0,0.1-0.1,0.2c-0.4,0.8-1,0.9-1.5,0.2c-1.2-1.4-2.4-2.8-3.6-4.2c-1.5-1.7-2.9-3.5-4.4-5.2c-0.7-0.8-2-1-3-0.5
			c-0.9,0.4-1.3,1.2-1.3,2.2c0,2.4,0,4.8,0,7.2c-0.2,0.6-0.2,1.2,0,1.8c0.1,0.4,0.2,0.7,0.7,0.7c0.7,0,1-0.3,1-1.2
			c0-2.7,0-5.5,0-8.2c0-0.8,0.3-1.1,1.1-0.9c0.3,0.1,0.5,0.4,0.8,0.7c0.7,0.8,1.4,1.7,2.1,2.5c0.9,1,1.8,2.1,2.7,3.1
			c1,1.2,2,2.4,3,3.5c0.4,0.4,0.9,0.6,1.4,0.6c1.4,0.1,2.2-0.7,2.8-1.8c0.2-0.2,0.1-0.3,0.1-0.5c0-2.9,0-5.9,0-8.8
			C121.5,85.6,121.5,85.4,121.4,85.2z M121.4,89.8c0,0.4,0,0.8,0,1.2C121.4,90.6,121.4,90.2,121.4,89.8z"/>
		<path class="st0" d="M248.5,85.2c-0.6-0.6-1-0.6-1.6,0c-0.2,0.2-0.1,0.3-0.1,0.5c0,2.1,0,4.3,0,6.4c0,0,0,0,0,0c0,0,0,0,0,0
			c-0.2,1.8-1.9,3-3.5,2.9c-1.9-0.1-3.7,0-5.6,0c-1.5,0-2.9-1.4-3-2.9c-0.1-0.2-0.1-0.5-0.1-0.8c0,0,0-0.1,0-0.1
			c0,0.3,0,0.6,0.1,0.8c0-2.1,0-4.2,0-6.2c0-0.2,0-0.4-0.1-0.5c-0.7-0.8-1-0.8-1.6-0.1c-0.2,2.5-0.2,5,0,7.5
			c0.3,2.2,2.4,4.1,4.4,4.1c2.2,0,4.4,0,6.6,0c0.2,0,0.4,0,0.6-0.1c2.1-0.5,3.3-1.9,3.8-4c0-0.1,0.1-0.2,0.1-0.3c0-2.2,0-4.5,0-6.7
			C248.7,85.5,248.7,85.3,248.5,85.2z M234.8,89.3c0-0.1,0-0.1,0-0.2C234.8,89.2,234.8,89.2,234.8,89.3z M246.9,91.4
			c0-0.3,0-0.6,0-0.9C246.9,90.8,246.9,91.1,246.9,91.4C246.9,91.4,246.9,91.4,246.9,91.4z"/>
		<path class="st0" d="M263.9,84.8c-3.8-0.1-7.7,0-11.6,0c-0.6,0-0.9,0.3-0.9,0.8c0,3.5,0,6.9,0,10.4c0,0.3,0.1,0.7,0.4,0.8
			c0.3,0.1,0.7,0.1,1-0.2c0.1-0.1,0.2-0.2,0.3-0.4c0-1.1,0-2.3,0-3.4c0-0.4,0-0.6,0.5-0.5c2.9,0,5.8,0,8.7,0c0.1,0,0.2,0.1,0.3,0.1
			c0,0,0,0,0,0c0.9,1.2,1.8,2.4,2.7,3.6c0.6,0.8,1.1,1,1.6,0.6c0.5-0.4,0.5-0.9-0.2-1.7c-0.7-0.9-1.4-1.8-2-2.7
			c1.4-0.5,2.3-1.3,2.7-2.2C268.4,87.6,266.7,84.9,263.9,84.8z M263.6,90.6c-1.6,0-3.2,0-4.9,0c-1.6,0-3.3,0-4.9,0
			c-0.5,0-0.7-0.2-0.7-0.7c0-1,0-1.9,0-2.9c0-0.4,0.1-0.6,0.5-0.6c3.3,0,6.6,0,9.9,0c1.3,0,2.3,0.9,2.4,2
			C266,89.7,265,90.6,263.6,90.6z"/>
		<path class="st0" d="M160.6,88.6c-0.5-2.3-2.7-3.8-5-3.8c-2.7,0-5.4,0-8,0c-2.6,0-4.7,1.7-5,4.4c-0.2,1.1-0.2,2.2,0,3.2
			c0,0,0,0,0,0c0,0,0,0,0,0c0,0.8,0.3,1.4,0.7,2.1c0.9,1.4,2.1,2.3,3.8,2.3c3,0,5.9,0,8.9,0c0.3,0,0.6,0,0.9-0.1
			c2.1-0.6,3.3-1.9,3.8-4c0.2-1.3,0.2-2.5,0-3.8C160.7,88.8,160.6,88.7,160.6,88.6z M159,91.9c-0.1,1.8-1.5,3.2-3.3,3.2
			c-1.4,0-2.7,0-4.1,0c-1.3,0-2.7,0-4,0c-1.9,0-3.3-1.4-3.3-3.3c0-0.7,0-1.3,0-2c0-1.8,1.4-3.2,3.1-3.3c2.8-0.1,5.6-0.1,8.5,0
			c1.8,0,3.1,1.4,3.2,3.2C159.1,90.4,159.1,91.2,159,91.9z"/>
	</g>
	<g>
		<path class="st0" d="M151,110.1c-0.3,0-0.7-0.2-0.8,0.4c-0.2,1.3-0.5,2.6-0.8,3.9c-0.3,1.4-0.6,2.9-0.9,4.3
			c-0.2-0.2-0.2-0.4-0.3-0.5c-0.5-2.5-1-5-1.5-7.4c-0.1-0.4-0.2-0.6-0.7-0.6c-0.5,0-0.6,0.3-0.6,0.6c-0.1,0.3-0.1,0.6-0.2,0.9
			c-0.5,2.4-1,4.7-1.4,7.1c-0.2-0.2-0.2-0.4-0.2-0.6c-0.5-2.4-1-4.9-1.5-7.3c-0.2-0.9-0.2-0.9-1.2-0.8c0.7,3.3,1.5,6.7,2.2,10
			c0.1,0.4,0.3,0.4,0.6,0.4c0.3,0,0.6,0,0.6-0.4c0.5-2.7,1.3-5.3,1.6-8c0.2,0.1,0.2,0.3,0.2,0.4c0.3,2.5,1,5,1.5,7.4
			c0.1,0.4,0.2,0.6,0.7,0.6c0.5,0,0.6-0.2,0.7-0.6c0.7-3.1,1.4-6.2,2-9.3C151.2,110.5,151.5,110.1,151,110.1z"/>
		<path class="st0" d="M117.8,110c-0.4,0-0.4,0.3-0.5,0.5c-0.8,2.1-1.7,4.1-2.5,6.3c-0.1-0.3-0.2-0.6-0.3-0.8
			c-0.7-1.9-1.5-3.7-2.2-5.6c-0.2-0.5-0.6-0.4-0.9-0.4c-0.5,0-0.3,0.4-0.3,0.6c0,3.1,0,6.2,0,9.3c0,0.3,0,0.6,0.4,0.6
			c0.5,0,0.5-0.2,0.5-0.6c0-2.2,0-4.4,0-6.6c0.1-0.2-0.1-0.5,0.2-0.7c0.6,1.6,1.2,3.2,1.9,4.8c0.1,0.4,0.2,0.7,0.8,0.7
			c0.5,0,0.6-0.4,0.7-0.7c0.6-1.6,1.3-3.2,1.9-4.9c0.2,0.1,0.2,0.3,0.2,0.4c0,2.3,0,4.6,0,7c0,0.3,0,0.6,0.5,0.6
			c0.5,0,0.5-0.3,0.5-0.6c0-3.1,0-6.2,0-9.2C118.5,110,118.3,110,117.8,110z"/>
		<path class="st0" d="M183.5,110c-0.5,0-0.5,0.3-0.5,0.6c0,2,0,4,0,6c0.1,0.3,0.1,0.5,0.1,0.8c0-0.3,0-0.5-0.1-0.8
			c-0.1,0.4,0.1,0.9-0.1,1.3c-0.1-0.1-0.1-0.2-0.2-0.3c-1.1-2.4-2.2-4.8-3.3-7.2c-0.2-0.5-0.5-0.4-0.9-0.4c-0.5,0-0.3,0.4-0.3,0.6
			c0,3.3,0,6.5,0,9.8c0.3,0.2,0.7,0.3,1,0c0-2.3,0-4.6,0-6.9c0.1-0.4-0.1-0.8,0.2-1.1c0.4,1.2,0.9,2.3,1.5,3.4
			c0.7,1.5,1.4,3.1,2.2,4.6c0.3,0.2,0.7,0.2,1,0c0-3.3,0-6.5,0-9.8C183.9,110.4,184.1,110,183.5,110z"/>
		<path class="st0" d="M284.3,110c-0.5,0-0.5,0.2-0.5,0.6c0,2.2,0,4.4,0,6.6c-0.1,0.3,0.1,0.6-0.2,0.9c-1.1-2.4-2.3-4.8-3.3-7.2
			c-0.3-0.7-0.6-1-1.3-0.8c-0.2,0.1-0.1,0.3-0.1,0.5c0,3.2,0,6.3,0,9.5c0,0.4,0.1,0.6,0.6,0.6c0.5,0,0.6-0.2,0.6-0.6
			c0-2.2,0-4.5,0-6.7c0-0.2-0.1-0.5,0.1-0.7c0.3,0.7,0.5,1.4,0.9,2.1c0.9,1.9,1.8,3.8,2.7,5.7c0.3,0.4,0.7,0.3,1.1,0.1
			c0-3.3,0-6.6,0-9.8C284.8,110.3,284.8,110,284.3,110z M279.9,112.7c0,0.1,0,0.2,0,0.4C279.9,113,279.8,112.8,279.9,112.7z"/>
		<path class="st0" d="M106.7,119.6c-1,0-2.1,0-3.1,0c-0.3,0-0.5-0.1-0.5-0.5c0-1,0-2.1,0-3.1c0-0.4,0.1-0.4,0.4-0.4
			c0.9,0,1.8,0,2.7,0c0.4,0,0.5-0.1,0.5-0.5c0-0.4-0.1-0.5-0.5-0.5c-0.9,0-1.8,0-2.7,0c-0.5,0-0.6-0.1-0.5-0.6c0-0.9,0-1.8,0-2.7
			c0-0.4,0.1-0.5,0.5-0.5c1,0,2,0,3,0c0.4,0,0.5-0.1,0.5-0.5c0-0.4-0.2-0.4-0.5-0.4c-1.3,0-2.6,0-3.9,0c-0.5,0-0.6,0.2-0.6,0.6
			c0,1.5,0,3.1,0,4.6c0,1.6,0,3.1,0,4.7c0,0.4,0.1,0.5,0.5,0.5c1.4,0,2.7,0,4.1,0c0.3,0,0.5-0.1,0.5-0.5
			C107.3,119.6,107,119.6,106.7,119.6z"/>
		<path class="st0" d="M244,110.1c-0.3,0-0.7-0.3-0.9,0.2c-0.3,1-0.5,2-0.7,3c-0.4,1.9-0.9,3.8-1.4,5.8c-0.1-0.2-0.2-0.3-0.2-0.4
			c-0.6-2.5-1.2-5-1.7-7.5c-0.3-1.1-0.3-1.1-1.3-1c0.1,0.5,0.3,1,0.4,1.5c0.7,2.9,1.5,5.9,2.2,8.8l0,0c0,0,0,0,0,0
			c0.4,0.3,0.8,0.3,1.2,0c0,0,0,0,0,0c0,0,0,0,0,0c0-0.2,0-0.4,0.1-0.5c0.8-3.1,1.6-6.3,2.4-9.4C244.1,110.3,244.3,110,244,110.1z"
			/>
		<path class="st0" d="M259.5,110c-1.3,0.1-2.6,0.1-3.9,0c-0.7,0-0.9,0.2-0.8,0.8c0.5,0.4,1,0.2,1.5,0.2c0.6,0,0.7,0.2,0.7,0.7
			c0,2.7,0,5.4,0,8.1c0,0.2-0.1,0.6,0.2,0.7c0.3,0.1,0.7,0.2,0.9-0.2c0,0,0,0,0,0c0,0,0,0,0,0c-0.1-2.6,0-5.2-0.1-7.8
			c0-0.5-0.1-1,0.1-1.5c0.1,0,0.2-0.1,0.2-0.1c-0.1,0-0.2,0-0.2,0.1c0.7-0.1,1.5,0.2,2.2-0.2c0,0,0,0,0,0c0,0,0,0,0,0
			C260.4,110.2,260.2,110,259.5,110z"/>
		<path class="st0" d="M173.3,110c-0.5,0-0.5,0.3-0.5,0.6c0,3.3,0,6.5,0,9.8c0.3,0.3,0.6,0.2,1,0c0-0.8,0-1.7,0-2.5
			c0-2.4,0-4.9,0-7.3C173.8,110.2,173.8,110,173.3,110z"/>
		<path class="st0" d="M159.7,119.9c0-0.1,0-0.2,0-0.2c-1.3,0-2.6,0-3.9,0c0-1.3,0-2.6,0-3.9c1.2,0,2.3,0,3.5,0c0.3-0.3,0.3-0.6,0-1
			c-1.2,0-2.3,0-3.5,0c0-1,0-2,0-3c0-0.5,0.2-0.6,0.6-0.6c0.9,0,1.7,0,2.6,0c0.8,0,0.9-0.2,0.6-1c0,0.1,0,0.2,0,0.2
			c0-0.1,0-0.2,0-0.2c-1.6,0-3.2,0-4.8,0c0,0.1-0.1,0.2-0.1,0.3c0,3.3,0,6.5,0,9.8c0,0.4,0.2,0.5,0.6,0.5c1.3,0,2.6,0,3.9,0
			c0.8,0,0.9-0.2,0.6-1C159.7,119.7,159.7,119.8,159.7,119.9z M154.7,119.7c0,0.1,0,0.1,0,0.2c0,0,0,0,0-0.1
			C154.7,119.8,154.7,119.8,154.7,119.7z"/>
		<path class="st0" d="M204.2,110c-1,0-1,0-1,1c0,3.1,0,6.3,0,9.4c0.8,0.4,1.1,0.3,1.1-0.6c0-3,0-6,0-9.1
			C204.4,110.5,204.5,110.2,204.2,110z"/>
		<path class="st0" d="M264.9,110.7c0-0.2,0.1-0.5-0.1-0.7c-0.9,0-0.9,0-0.9,0.9c0,1.7,0,3.3,0,5c0,1.5,0.1,3,0,4.4
			c0.2,0.4,0.6,0.2,0.9,0.2c0.3-0.1,0.2-0.4,0.2-0.7C264.9,116.8,264.9,113.8,264.9,110.7z"/>
		<path class="st0" d="M214.4,110C214.4,110,214.4,110,214.4,110L214.4,110L214.4,110L214.4,110c-1,0-1,0-1,1c0,1.7,0,3.4,0,5.1
			c0.1,0.3,0.1,0.7,0.1,1c0-0.3,0-0.7-0.1-1c-0.1,0.6,0.1,1.3-0.1,1.9c-0.1-0.1-0.1-0.1-0.2-0.2c-1.1-2.4-2.2-4.8-3.3-7.2
			c-0.2-0.5-0.6-0.4-1-0.4c-0.4,0-0.2,0.4-0.2,0.6c0,3.3,0,6.5,0,9.8c0.3,0.2,0.7,0.3,1,0c0,0,0,0,0,0c0,0,0,0,0,0c0-2.5,0-5,0-7.5
			c-0.1-0.2-0.1-0.3,0-0.4c0,0.1,0,0.3,0,0.4c0-0.2,0-0.3,0.1-0.5c1.1,2.7,2.4,5.4,3.7,8.1c1,0.3,1.1,0.2,1.1-0.8c0-3,0-5.9,0-8.9
			C214.5,110.6,214.7,110.3,214.4,110z"/>
		<path class="st0" d="M224.6,110c-1,0-1,0-1,1c0,1.7,0,3.4,0,5.1c0.1,0.3,0.1,0.7,0.1,1c0-0.3,0-0.7-0.1-1
			c-0.1,0.6,0.1,1.3-0.1,1.9c-0.1-0.1-0.1-0.1-0.2-0.2c-1.1-2.4-2.2-4.8-3.3-7.2c-0.2-0.5-0.6-0.4-1-0.4c-0.4,0-0.2,0.4-0.2,0.6
			c0,3.3,0,6.5,0,9.8c0.3,0.2,0.7,0.3,1,0c0,0,0,0,0,0c0,0,0,0,0,0c0-2.5,0-5,0-7.5c-0.1-0.2-0.1-0.3,0-0.4c0,0.1,0,0.3,0,0.4
			c0-0.2,0-0.3,0.1-0.5c1.1,2.7,2.4,5.4,3.7,8.1c1,0.3,1.1,0.2,1.1-0.8c0-3,0-5.9,0-8.9C224.7,110.6,224.8,110.3,224.6,110z"/>
		<path class="st0" d="M194,115.2c0-0.1-0.1-0.3-0.2-0.3c-1,0-1.9-0.2-2.9,0.1c0.2,0,0.4-0.1,0.6-0.1c-0.2,0-0.4,0-0.6,0.1
			c-0.1,0.7,0.2,0.9,0.9,0.8c0.4-0.1,0.7,0,1.1,0c0,0.8,0,1.6,0,2.4c-0.2,1.3-1.4,1.6-2.2,1.5c-1.1-0.2-1.7-1.1-1.6-2.1
			c0-1.6,0-3.3,0-4.9c0,0,0,0,0,0c0,0,0,0,0,0c0-1.2,0.5-1.8,1.4-1.9c0.3,0,0.6,0,0.9,0c0,0,0,0,0,0c0,0,0,0,0,0
			c0.7,0.2,1.1,0.5,1.4,1.2c0.1,0.3-0.1,0.6,0.2,0.8c0.3,0.2,0.7,0.3,1-0.1c0,0,0,0,0,0c0,0,0,0,0,0c-0.2-0.1-0.1-0.3-0.1-0.5
			c-0.1-0.8-0.4-1.5-1.1-1.9c-1-0.7-2.2-0.7-3.3-0.2c-1,0.5-1.3,1.4-1.3,2.5c0,1.7,0,3.4,0,5.1c0,1.3,0.6,2.7,2.4,2.9
			c0.3,0.2,0.6,0.2,1,0c1.5-0.3,2.2-1.2,2.4-2.6C194.1,117.1,193.9,116.1,194,115.2z M193,114.9c0.1,0,0.2,0,0.3,0
			c0.1,0,0.2,0,0.2,0C193.3,114.9,193.2,114.9,193,114.9z"/>
		<path class="st0" d="M167.1,116.3c0.8-0.3,1.4-0.9,1.6-1.7c0.2-0.6,0.2-1.1,0.3-1.7c-0.1-0.1-0.1-0.3-0.1-0.4c0-0.1,0-0.2,0-0.3
			c-0.5-1.3-1-2.1-3.2-2.1c-0.5,0-1,0-1.5,0c-0.6-0.1-0.7,0.1-0.7,0.7c0,3.2,0,6.5,0,9.7c0.3,0.1,0.7,0.1,1,0c0-1.3,0-2.6,0-3.9
			c0.4-0.2,0.7-0.2,1.1,0c0.8,1.3,1.6,2.6,2.4,3.9c0.4,0,0.8,0.2,1.1-0.1c-0.8-1.2-1.6-2.4-2.4-3.7
			C166.6,116.3,166.9,116.3,167.1,116.3z M164.5,114.2c0-0.3,0-0.7,0-1c0-0.6,0-1.2,0-1.8c0-0.5,0.1-0.6,0.6-0.5c0.1,0,0.3,0,0.4,0
			c2.1,0,3,1.4,2.3,3.4c-0.3,0.8-0.9,1.2-1.9,1.3C164.5,115.6,164.5,115.6,164.5,114.2z"/>
		<path class="st0" d="M137.8,112.7c-0.1-1.8-1.2-2.9-2.9-2.9c-1.7,0-2.9,1-3,2.8c-0.1,1.8-0.1,3.6,0,5.3c0,0.7,0.3,1.3,0.7,1.8
			c0.9,1,2,1.2,3.3,0.8c1.3-0.4,1.8-1.4,1.9-2.6c0.1-0.9,0-1.7,0-2.6c0,0,0,0,0,0C137.8,114.5,137.9,113.6,137.8,112.7z
			 M136.9,117.8c-0.1,1.2-0.8,1.9-1.9,2c-1.2,0-2-0.6-2.1-1.8c-0.1-1.8-0.1-3.6,0-5.3c0.1-1.2,0.9-1.8,2-1.8c1.1,0,1.9,0.7,1.9,1.9
			c0.1,0.9,0,1.7,0,2.6c0,0,0,0,0,0C136.9,116.1,136.9,117,136.9,117.8z"/>
		<path class="st0" d="M272.5,109.9c-0.4,0-0.8,0-1.3,0c-1.5,0.2-2.4,1.7-2.4,2.9c0,1.7,0,3.4,0,5.1c0.1,1.6,1,2.8,2.5,2.9
			c1.9,0.1,3.1-0.8,3.3-2.5c0.3-1.8,0.2-3.6,0.1-5.3C274.8,111.4,274.1,110.3,272.5,109.9z M273.8,118.2c-0.3,1.1-0.9,1.6-1.9,1.6
			c-1.1,0-1.8-0.5-1.9-1.6c-0.2-1.9-0.2-3.8,0-5.7c0-0.1,0-0.1,0-0.2c0.3-1,0.9-1.5,1.9-1.5c1,0,1.6,0.5,1.9,1.4
			c0.1,0.2,0.1,0.4,0.1,0.5c0,0.8,0,1.7,0,2.5C273.8,116.2,274,117.2,273.8,118.2z"/>
		<path class="st0" d="M232.3,109.9c-0.4,0-0.8,0-1.3,0c-1.3,0.2-2.2,1-2.3,2.3c-0.2,2.1-0.3,4.2,0,6.2c0.2,1.6,1.3,2.5,3.1,2.3
			c1.3-0.1,2.5-0.7,2.7-2.6c0.2-1.6,0.1-3.2,0.1-4.8C234.7,111.6,234.2,110.4,232.3,109.9z M233.7,117.6c0,1.3-0.7,2.1-1.8,2.2
			c-1.3,0.1-2.2-0.7-2.2-2.2c0-0.8,0-1.5,0-2.3c0,0,0,0,0,0c0-0.8,0-1.6,0-2.3c0.1-1.4,0.8-2.1,2-2.1c1,0,1.7,0.5,1.9,1.5
			c0.1,0.2,0.1,0.5,0.1,0.8C233.7,114.5,233.7,116,233.7,117.6z"/>
		<path class="st0" d="M250.1,110.4c-0.1-0.6-0.5-0.3-0.8-0.3c-0.3,0-0.4,0-0.5,0.4c-0.5,1.9-1,3.8-1.5,5.7
			c-0.3,1.4-0.9,2.9-1.1,4.3c0.4,0,0.8,0.2,1.1-0.2c0,0,0,0,0,0c0-0.6,0.3-1.2,0.4-1.8c0.1-0.3,0.2-0.4,0.5-0.4c0.8,0,1.5,0,2.3,0
			c0.4,0,0.6,0.1,0.7,0.5c0.1,0.7,0.3,1.3,0.5,1.9c0.4,0,0.8,0.4,1-0.2c-0.2-0.7-0.4-1.4-0.6-2.1C251.5,115.6,250.8,113,250.1,110.4
			z M250.6,117.2c-0.8,0-1.6,0-2.5,0c0.5-1.9,0.9-3.6,1.3-5.4c0,0,0.1-0.1,0.1-0.2c0.4,1.8,0.9,3.5,1.3,5.3
			C251,117.2,250.8,117.2,250.6,117.2z"/>
		<path class="st0" d="M125.5,110c-0.7,0-1.3,0-2,0c-0.5,0-0.7,0.1-0.6,0.6c0,1.5,0,3.1,0,4.6c0,1.6,0,3.1,0,4.7
			c0,0.4,0.1,0.5,0.5,0.5c0.4,0,0.5-0.2,0.5-0.5c0-1,0-1.9,0-2.9c0-0.4,0.1-0.6,0.6-0.5c0.5,0,1,0,1.5,0c1.2-0.1,2.1-0.8,2.4-2
			c0.2-0.6,0.2-1.3,0.1-1.9C128.2,111,127.1,110,125.5,110z M126.9,115c-0.4,0.6-1.1,0.6-1.8,0.6c-1.3,0-1.3,0-1.3-1.2
			c0-0.4,0-0.8,0-1.1c0-0.6,0-1.3,0-1.9c0-0.3,0.1-0.5,0.4-0.4c0.3,0,0.6,0,0.8,0c0.9,0,1.7,0.1,2.1,1
			C127.6,113,127.6,114.1,126.9,115z"/>
	</g>
</g>
</svg>
